<svg width="156" height="64" viewBox="0 0 156 64" fill="none" xmlns="http://www.w3.org/2000/svg">
<path d="M11.1911 57.8413C11.1911 56.7299 10.8097 55.7929 10.0579 55.0192C9.30608 54.2456 8.39081 53.8643 7.323 53.8643C6.35325 53.8643 5.51425 54.1693 4.80601 54.7904C4.10866 55.4006 3.67282 56.1415 3.50938 57.0241H2.47425V54.0277H0.839844V61.6549H2.47425V58.5496H3.50938C3.67282 59.4757 4.10866 60.2602 4.80601 60.8813C5.50336 61.5024 6.34235 61.8184 7.323 61.8184C8.39081 61.8184 9.30608 61.437 10.0579 60.6634C10.8097 59.9007 11.1911 58.9527 11.1911 57.8413ZM9.55669 57.8413C9.55669 58.5605 9.33877 59.1597 8.90293 59.6283C8.45619 60.1077 7.93318 60.3474 7.323 60.3474C6.71282 60.3474 6.18981 60.1077 5.75397 59.6283C5.30723 59.1597 5.08931 58.5605 5.08931 57.8413C5.08931 57.1222 5.30723 56.5229 5.75397 56.0435C6.18981 55.5749 6.71282 55.3352 7.323 55.3352C7.93318 55.3352 8.45619 55.5749 8.90293 56.0435C9.33877 56.5229 9.55669 57.1222 9.55669 57.8413Z" fill="white"/>
<path d="M13.7998 54.0283V61.6556H15.4342V59.1495H17.0141C17.7987 59.1495 18.4524 58.8989 18.9645 58.4085C19.4767 57.9182 19.7382 57.308 19.7382 56.5889C19.7382 55.8589 19.4767 55.2596 18.9645 54.7584C18.4415 54.268 17.7987 54.0283 17.0141 54.0283H13.7998ZM16.9597 55.4993C17.2865 55.4993 17.5589 55.6082 17.7769 55.8153C17.9948 56.0223 18.1037 56.2838 18.1037 56.5889C18.1037 56.894 17.9948 57.1555 17.7769 57.3625C17.5589 57.5695 17.2865 57.6785 16.9597 57.6785H15.4342V55.4993H16.9597Z" fill="white"/>
<path d="M29.102 61.6556V54.0283H27.6855L23.9264 58.8771V54.0283H22.292V61.6556H23.7085L27.4676 56.8068V61.6556H29.102Z" fill="white"/>
<path d="M31.1641 60.1846V63.2355H32.7985V61.6556H37.3748V63.2355H39.0092V60.1846H38.0831V54.0283H32.7985V56.371C32.7985 56.8831 32.7549 57.3625 32.6677 57.8093C32.5806 58.2669 32.4825 58.6265 32.3844 58.8989C32.2755 59.1604 32.1556 59.4001 32.014 59.6289C31.8723 59.8468 31.7851 59.9885 31.7307 60.0538C31.6653 60.1083 31.6326 60.1628 31.5999 60.1846H31.1641ZM34.4329 56.371V55.4993H36.4487V60.1846H33.2343L33.3651 60.0538C33.4413 59.9667 33.5394 59.825 33.6593 59.618C33.7791 59.411 33.8881 59.1713 34.0079 58.8989C34.1278 58.6265 34.2259 58.256 34.3021 57.8093C34.3893 57.3625 34.4329 56.8831 34.4329 56.371Z" fill="white"/>
<path d="M48.1509 61.6556V54.0283H46.7344L42.9752 58.8771V54.0283H41.3408V61.6556H42.7573L46.5164 56.8068V61.6556H48.1509Z" fill="white"/>
<path d="M52.7213 54.0283H51.0869V56.371C51.0869 57.2862 51.3266 57.9945 51.8061 58.4957C52.2964 59.0078 52.961 59.2584 53.8109 59.2584C54.541 59.2584 55.1403 59.1168 55.6088 58.8226V61.6556H57.2432V54.0283H55.6088V57.2427L55.4235 57.3843C55.3037 57.4715 55.1185 57.5586 54.8678 57.6567C54.6172 57.7439 54.3557 57.7875 54.0833 57.7875C53.6475 57.7875 53.3097 57.6676 53.07 57.4279C52.8412 57.1773 52.7213 56.8286 52.7213 56.371V54.0283Z" fill="white"/>
<path d="M66.8257 54.0283H65.1913V57.0792H61.9225V54.0283H60.2881V61.6556H61.9225V58.5502H65.1913V61.6556H66.8257V54.0283Z" fill="white"/>
<path d="M73.7943 58.4412H71.9419L72.8681 55.9351L73.7943 58.4412ZM74.3391 59.8577L74.9928 61.6556H76.7362L73.7398 54.0283H71.9964L69 61.6556H70.7434L71.3971 59.8577H74.3391Z" fill="white"/>
<path d="M83.8619 54.0283H82.2275V61.6556H83.8619V59.4763L84.8426 58.3867L87.0763 61.6556H88.9831L85.9322 57.1882L88.7652 54.0283H86.8584L83.8619 57.3516V54.0283Z" fill="white"/>
<path d="M92.3012 57.8413C92.3012 57.144 92.5409 56.5447 93.0203 56.0653C93.4889 55.5749 94.0664 55.3352 94.7528 55.3352C95.4393 55.3352 96.0168 55.5749 96.4853 56.0653C96.9647 56.5447 97.2044 57.144 97.2044 57.8413C97.2044 58.5496 96.9647 59.138 96.4853 59.6174C96.0168 60.1077 95.4393 60.3474 94.7528 60.3474C94.0664 60.3474 93.4889 60.1077 93.0203 59.6174C92.5409 59.138 92.3012 58.5496 92.3012 57.8413ZM90.6123 57.8413C90.6123 58.9309 91.0155 59.8789 91.8109 60.6525C92.6063 61.4261 93.5869 61.8184 94.7528 61.8184C95.9187 61.8184 96.8993 61.4261 97.6947 60.6525C98.4902 59.8789 98.8933 58.9309 98.8933 57.8413C98.8933 56.7408 98.4902 55.8038 97.6947 55.0301C96.8993 54.2565 95.9187 53.8643 94.7528 53.8643C93.5869 53.8643 92.6063 54.2565 91.8109 55.0301C91.0155 55.8038 90.6123 56.7408 90.6123 57.8413Z" fill="white"/>
<path d="M105.588 57.3516L102.973 54.0283H101.502V61.6556H103.136V56.5889L105.588 59.6943L108.04 56.5671V61.6556H109.674V54.0283H108.225L105.588 57.3516Z" fill="white"/>
<path d="M119.199 54.0283H112.716V61.6556H114.35V55.4993H117.565V61.6556H119.199V54.0283Z" fill="white"/>
<path d="M126.169 58.4412H124.317L125.243 55.9351L126.169 58.4412ZM126.714 59.8577L127.368 61.6556H129.111L126.115 54.0283H124.371L121.375 61.6556H123.118L123.772 59.8577H126.714Z" fill="white"/>
<path d="M137.823 54.0283H136.188V57.0792H132.92V54.0283H131.285V61.6556H132.92V58.5502H136.188V61.6556H137.823V54.0283Z" fill="white"/>
<path d="M142.502 54.0283H140.867V61.6556H142.502V54.0283Z" fill="white"/>
<path d="M151.213 54.0283H147.835C147.072 54.0283 146.451 54.268 145.961 54.7475C145.47 55.2269 145.22 55.8262 145.22 56.5344C145.22 56.8395 145.274 57.1228 145.361 57.3952C145.459 57.6676 145.568 57.8746 145.699 58.0272C145.819 58.1797 145.95 58.3214 146.113 58.4521C146.266 58.5829 146.375 58.67 146.44 58.7027C146.495 58.7245 146.549 58.7572 146.582 58.7681L144.947 61.6556H146.691L148.162 58.986H149.578V61.6556H151.213V54.0283ZM146.854 56.5344C146.854 56.2293 146.952 55.9896 147.148 55.7935C147.344 55.5974 147.595 55.4993 147.889 55.4993H149.578V57.5151H147.889C147.595 57.5151 147.344 57.417 147.148 57.2318C146.952 57.0465 146.854 56.8068 146.854 56.5344Z" fill="white"/>
<path d="M5.82098 0.75H0.839844V36.7249H5.82098V23.3786C5.82098 21.1207 6.38257 19.3395 7.50577 18.0852C8.62897 16.8308 10.1673 16.1786 12.0718 16.1786C13.7078 16.1786 15.0751 16.7807 16.1739 17.9347C17.2727 19.1138 17.8343 20.5939 17.8343 22.3751V36.75H22.8398V22.3751C22.8398 19.0636 21.9364 16.4545 20.1295 14.4977C18.3226 12.5409 15.9542 11.5625 13.0729 11.5625C12.2427 11.5625 11.4125 11.6629 10.6068 11.8887C9.77658 12.1145 9.11731 12.3653 8.58013 12.6413C8.04295 12.9172 7.53019 13.2183 7.06626 13.5695C6.60233 13.9207 6.2849 14.1716 6.1384 14.3221C5.9919 14.4726 5.86981 14.573 5.82098 14.6483V0.75Z" fill="#F0145A"/>
<path d="M33.9749 0.75H28.8398V36.695H33.9749V0.75Z" fill="white"/>
<path d="M64.2624 26.168L64.5191 23.6005C64.5191 20.16 63.3894 17.2844 61.0787 14.9737C58.7679 12.6629 55.8923 11.5332 52.4519 11.5332C49.0114 11.5332 46.0331 12.7656 43.5683 15.2304C41.1035 17.6952 39.8711 20.6222 39.8711 24.114C39.8711 27.7085 41.1548 30.7895 43.671 33.357C46.1872 35.9245 49.2168 37.2082 52.7086 37.2082C54.0437 37.2082 55.2761 37.0028 56.5085 36.6434C57.7409 36.2326 58.7679 35.8218 59.4868 35.411C60.2571 34.9488 61.0273 34.4353 61.6949 33.8705C62.3624 33.3056 62.8246 32.8948 63.03 32.6381C63.2354 32.3813 63.3894 32.2273 63.4921 32.0732L60.1544 28.7355L59.3841 29.7111C58.8706 30.3273 57.9977 30.9435 56.7653 31.6111C55.4815 32.2786 54.1464 32.5867 52.7086 32.5867C50.706 32.5867 49.0114 31.9705 47.5736 30.6868C46.1358 29.403 45.2629 27.9139 45.0061 26.168H64.2624ZM52.4519 15.898C54.3518 15.898 55.8923 16.4628 57.1761 17.5412C58.4085 18.6709 59.1787 20.0573 59.4868 21.8032H45.2115C45.6737 20.0573 46.4953 18.6709 47.779 17.5412C49.0114 16.4628 50.6033 15.898 52.4519 15.898Z" fill="white"/>
<path d="M88.2114 35.2056C88.2114 37.465 87.5439 39.3136 86.1574 40.7514C84.8223 42.1378 83.1278 42.8567 81.0224 42.8567C80.0981 42.8567 79.1738 42.7027 78.3009 42.4459C77.4279 42.1892 76.7604 41.8811 76.1955 41.5216C75.6307 41.1622 75.1172 40.8027 74.6037 40.3406C74.1415 39.8784 73.8334 39.5703 73.6794 39.4163C73.5253 39.2622 73.4226 39.1082 73.3199 39.0055L69.9822 42.3432L70.393 42.8567C70.6497 43.2162 71.1119 43.6783 71.7281 44.1918C72.3443 44.654 73.0632 45.1675 73.8848 45.681C74.7064 46.1431 75.7334 46.5539 77.0171 46.9134C78.3009 47.2728 79.636 47.4782 81.0224 47.4782C84.5142 47.4782 87.3898 46.2972 89.8033 43.9351C92.1654 41.5216 93.3464 38.646 93.3464 35.1542V12.0467H88.2114V14.6142L87.3385 13.844C86.7736 13.3305 85.9007 12.817 84.6683 12.3035C83.4359 11.79 82.1008 11.5332 80.7657 11.5332C77.6333 11.5332 74.9631 12.7143 72.6524 15.1277C70.3416 17.5412 69.2119 20.4168 69.2119 23.8572C69.2119 27.2977 70.3416 30.1733 72.6524 32.5867C74.9631 35.0002 77.6333 36.1812 80.7657 36.1812C81.6386 36.1812 82.4602 36.0785 83.3332 35.8731C84.1548 35.6164 84.8223 35.3596 85.3872 35.1029C85.952 34.8461 86.4655 34.538 86.9277 34.1786C87.3898 33.8191 87.7493 33.5624 87.852 33.4597L88.2114 33.1002V35.2056ZM74.3469 23.8572C74.3469 21.7005 75.0145 19.9033 76.4009 18.4141C77.7874 16.925 79.4306 16.1547 81.2792 16.1547C83.1278 16.1547 84.771 16.925 86.1574 18.4141C87.4925 19.9033 88.2114 21.7005 88.2114 23.8572C88.2114 26.0139 87.4925 27.8112 86.1574 29.3003C84.771 30.7895 83.1278 31.5597 81.2792 31.5597C79.4306 31.5597 77.7874 30.7895 76.4009 29.3003C75.0145 27.8112 74.3469 26.0139 74.3469 23.8572Z" fill="white"/>
<path d="M120.148 36.6947V20.7762C120.148 18.1574 119.173 15.9493 117.273 14.2034C115.373 12.4062 112.908 11.5332 109.878 11.5332C108.697 11.5332 107.516 11.6873 106.386 11.9954C105.257 12.3548 104.332 12.7143 103.665 13.1251C102.997 13.5359 102.33 13.998 101.713 14.5629C101.097 15.0764 100.738 15.4358 100.532 15.6412C100.378 15.8466 100.224 16.0007 100.122 16.1547L103.459 19.4925L104.127 18.6195C104.538 18.0547 105.257 17.5412 106.335 16.9763C107.413 16.4115 108.594 16.1547 109.878 16.1547C111.367 16.1547 112.6 16.6169 113.575 17.4898C114.551 18.3628 115.013 19.4925 115.013 20.7762L106.027 22.3167C103.819 22.6762 102.022 23.5491 100.789 24.9356C99.5054 26.322 98.8379 28.0166 98.8379 30.0192C98.8379 31.9192 99.6595 33.5624 101.303 35.0002C102.997 36.4893 105.051 37.2082 107.567 37.2082C108.44 37.2082 109.262 37.1055 110.084 36.8488C110.957 36.6434 111.624 36.3866 112.189 36.1299C112.754 35.8731 113.267 35.565 113.729 35.2056C114.192 34.8461 114.5 34.5894 114.705 34.4867C114.859 34.3326 114.962 34.1786 115.013 34.1272V36.6947H120.148ZM108.338 32.5867C107.003 32.5867 105.924 32.2786 105.154 31.6624C104.332 31.0462 103.973 30.3273 103.973 29.5057C103.973 28.6328 104.23 27.8625 104.794 27.2977C105.359 26.7328 106.13 26.322 107.054 26.168L115.013 24.8842V25.3977C115.013 27.7085 114.448 29.4544 113.267 30.7381C112.086 31.9705 110.443 32.5867 108.338 32.5867Z" fill="white"/>
<path d="M131.48 0.75H126.345V36.695H131.48V0.75Z" fill="white"/>
<path d="M154.829 14.871L154.521 14.5115C154.316 14.3061 154.007 14.0494 153.545 13.6899C153.083 13.3305 152.57 13.0224 152.005 12.6629C151.44 12.3548 150.67 12.0981 149.745 11.8413C148.821 11.6359 147.845 11.5332 146.87 11.5332C144.354 11.5332 142.3 12.2521 140.656 13.6899C138.962 15.1791 138.14 16.8223 138.14 18.7222C138.14 20.1087 138.448 21.2384 139.065 22.2654C139.681 23.241 140.451 23.9599 141.427 24.3707C142.351 24.8329 143.378 25.295 144.456 25.6545C145.535 26.0139 146.51 26.322 147.486 26.5788C148.41 26.8869 149.181 27.2463 149.797 27.7085C150.413 28.1706 150.721 28.7868 150.721 29.5057C150.721 30.43 150.362 31.2003 149.694 31.7651C149.027 32.2786 148 32.5867 146.613 32.5867C145.483 32.5867 144.354 32.2786 143.275 31.7651C142.197 31.2003 141.529 30.7381 141.17 30.3787C140.862 30.0192 140.605 29.7111 140.451 29.5057L137.113 32.8435L137.473 33.3056C137.729 33.6137 138.089 33.9732 138.602 34.384C139.167 34.8461 139.783 35.2569 140.451 35.6677C141.17 36.0785 142.094 36.438 143.173 36.7461C144.251 37.0542 145.432 37.2082 146.613 37.2082C149.335 37.2082 151.594 36.438 153.289 34.9488C154.983 33.4597 155.856 31.6111 155.856 29.5057C155.856 28.1193 155.548 26.9382 154.932 26.0139C154.316 25.0383 153.545 24.3194 152.57 23.8572C151.645 23.3437 150.618 22.9329 149.54 22.5735C148.462 22.214 147.486 21.8546 146.51 21.6492C145.586 21.3924 144.816 20.9816 144.2 20.5195C143.583 20.0573 143.275 19.4411 143.275 18.7222C143.275 18.0547 143.583 17.4385 144.251 16.925C144.867 16.4115 145.74 16.1547 146.87 16.1547C147.691 16.1547 148.513 16.3601 149.283 16.7196C150.105 17.079 150.67 17.3871 150.926 17.6439C151.183 17.9006 151.389 18.106 151.491 18.2087L154.829 14.871Z" fill="white"/>
</svg>
