<svg width="25" height="25" viewBox="0 0 25 25" xmlns="http://www.w3.org/2000/svg">
<g clip-path="url(#clip0)">
<path d="M24.5 12.4825C24.5 5.81459 19.1274 0.40918 12.5 0.40918C5.87258 0.40918 0.5 5.81459 0.5 12.4825C0.5 18.5087 4.88823 23.5034 10.625 24.4092V15.9725H7.57813V12.4825H10.625V9.82261C10.625 6.79673 12.4165 5.12533 15.1576 5.12533C16.4705 5.12533 17.8438 5.36113 17.8438 5.36113V8.33231H16.3306C14.8399 8.33231 14.375 9.26297 14.375 10.2178V12.4825H17.7031L17.1711 15.9725H14.375V24.4092C20.1118 23.5034 24.5 18.5087 24.5 12.4825Z" />
</g>
<defs>
<clipPath id="clip0">
<rect width="24" height="24" transform="translate(0.5 0.40918)"/>
</clipPath>
</defs>
</svg>
